<?xml version="1.0" encoding="UTF-8" standalone="no"?>
<svg
   width="810pt"
   height="324pt"
   viewBox="0 0 810 324"
   version="1.1"
   id="svg8"
   sodipodi:docname="ECU_lockup_primary_Purple.svg"
   xmlns:inkscape="http://www.inkscape.org/namespaces/inkscape"
   xmlns:sodipodi="http://sodipodi.sourceforge.net/DTD/sodipodi-0.dtd"
   xmlns="http://www.w3.org/2000/svg"
   xmlns:svg="http://www.w3.org/2000/svg">
  <defs
     id="defs8" />
  <sodipodi:namedview
     id="namedview8"
     pagecolor="#ffffff"
     bordercolor="#000000"
     borderopacity="0.25"
     inkscape:showpageshadow="2"
     inkscape:pageopacity="0.0"
     inkscape:pagecheckerboard="0"
     inkscape:deskcolor="#d1d1d1"
     inkscape:document-units="pt"
     inkscape:zoom="0.060185185"
     inkscape:cx="531.69231"
     inkscape:cy="216"
     inkscape:window-width="944"
     inkscape:window-height="245"
     inkscape:window-x="0"
     inkscape:window-y="33"
     inkscape:window-maximized="0"
     inkscape:current-layer="svg8" />
  <path
     fill-rule="nonzero"
     fill="rgb(28.112793%, 16.386414%, 51.6922%)"
     fill-opacity="1"
     d="M 235.296875 199.273438 C 235.296875 190.027344 234.910156 92.09375 234.832031 88.078125 L 234.621094 77.441406 L 224.675781 72.773438 C 194.089844 58.429688 164.21875 53.859375 146.132812 52.449219 C 146.902344 53.371094 147.847656 54.203125 148.992188 54.96875 C 167.078125 56.625 195.058594 61.394531 223.679688 74.820312 L 232.335938 78.882812 L 232.519531 88.125 C 232.601562 92.132812 232.988281 190.03125 232.988281 199.273438 C 232.988281 210.992188 215.546875 228.984375 201.535156 242.5 C 189.710938 253.910156 166.445312 275.484375 138.503906 287.941406 L 131.847656 290.910156 L 125.191406 287.941406 C 97.25 275.484375 75.179688 254.636719 63.355469 243.226562 C 49.347656 229.710938 30.703125 210.988281 30.703125 199.273438 C 30.703125 190.011719 31.09375 92.101562 31.171875 88.125 L 31.355469 78.882812 L 40.015625 74.820312 C 68.859375 61.289062 97.046875 56.550781 115.113281 54.929688 C 116.242188 54.167969 117.183594 53.335938 117.945312 52.421875 C 99.898438 53.796875 69.816406 58.328125 39.015625 72.773438 L 29.070312 77.441406 L 28.859375 88.078125 C 28.78125 92.0625 28.394531 190.007812 28.394531 199.273438 C 28.394531 209.3125 40.898438 224.742188 61.734375 244.839844 C 73.667969 256.355469 95.96875 277.402344 124.234375 290.007812 L 131.847656 293.398438 L 139.460938 290.007812 C 167.722656 277.402344 191.222656 255.628906 203.15625 244.113281 C 223.992188 224.019531 235.296875 209.3125 235.296875 199.273438 Z M 132.019531 52.507812 C 132.089844 52.289062 132.171875 52.066406 132.226562 51.847656 C 132.101562 51.847656 131.964844 51.84375 131.847656 51.84375 C 131.839844 51.84375 131.828125 51.847656 131.820312 51.847656 C 131.878906 52.066406 131.945312 52.285156 132.019531 52.507812 "
     id="path1" />
  <path
     fill-rule="nonzero"
     fill="rgb(28.112793%, 16.386414%, 51.6922%)"
     fill-opacity="1"
     d="M 86.492188 155.976562 C 88.40625 142.484375 95.300781 109.742188 118.871094 83.390625 C 118.871094 83.390625 69.566406 98.324219 56.539062 169.328125 L 86.492188 155.976562 "
     id="path2" />
  <path
     fill-rule="nonzero"
     fill="rgb(28.112793%, 16.386414%, 51.6922%)"
     fill-opacity="1"
     d="M 176.949219 155.976562 C 175.03125 142.484375 168.136719 109.742188 144.566406 83.390625 C 144.566406 83.390625 193.875 98.324219 206.898438 169.328125 L 176.949219 155.976562 "
     id="path3" />
  <path
     fill-rule="nonzero"
     fill="rgb(28.112793%, 16.386414%, 51.6922%)"
     fill-opacity="1"
     d="M 226.136719 89.4375 L 226.015625 83.378906 L 220.449219 80.6875 C 198.050781 69.859375 175.75 64.734375 158.78125 62.324219 C 158.507812 65.410156 158.105469 70.015625 157.828125 73.875 C 172.46875 76.121094 191.140625 80.644531 209.902344 89.714844 L 214.804688 92.085938 L 214.90625 97.425781 C 214.957031 100.054688 214.855469 143.882812 214.796875 171.398438 L 224.265625 175.261719 L 214.765625 184.242188 C 214.757812 188.65625 214.75 191.785156 214.75 192.933594 C 214.75 196.898438 211.761719 202.378906 207.71875 207.980469 L 207.71875 190.5625 L 170.890625 174.140625 L 92.652344 174.140625 L 55.972656 190.492188 L 55.972656 208.164062 C 51.863281 202.5 48.804688 196.941406 48.804688 192.933594 C 48.804688 191.734375 48.800781 188.378906 48.789062 183.664062 L 39.574219 174.949219 L 48.761719 171.203125 C 48.699219 143.675781 48.597656 100.050781 48.648438 97.425781 L 48.753906 92.085938 L 52.320312 89.714844 C 71.347656 80.515625 91.144531 75.992188 106.210938 73.777344 C 105.933594 69.902344 105.535156 65.304688 105.257812 62.242188 C 87.878906 64.617188 64.253906 69.730469 41.585938 80.6875 L 37.539062 83.378906 L 37.421875 89.4375 C 37.34375 93.621094 37.601562 187.433594 37.601562 195.65625 C 37.601562 206.597656 57.613281 227.675781 66.21875 236.226562 C 77.601562 247.542969 100.691406 268.359375 127.425781 280.640625 L 131.777344 282.640625 L 136.132812 280.640625 C 162.867188 268.359375 185.953125 247.542969 197.339844 236.226562 C 197.421875 236.148438 197.507812 236.058594 197.59375 235.976562 C 197.59375 235.996094 197.59375 236.019531 197.59375 236.042969 L 197.59375 235.972656 C 206.328125 227.269531 225.957031 206.496094 225.957031 195.65625 C 225.957031 187.433594 226.214844 93.621094 226.136719 89.4375 Z M 82.199219 215.765625 C 89.910156 217.527344 91.726562 225.859375 91.859375 236.042969 L 91.859375 244.703125 C 84.417969 238.664062 78.28125 232.910156 74.019531 228.675781 C 72.40625 227.070312 70.332031 224.964844 68.074219 222.550781 C 69.28125 219.671875 71.132812 217.480469 73.898438 216.328125 L 71.8125 204.410156 L 64.445312 207.761719 L 64.445312 203.496094 L 91.351562 191.269531 L 91.351562 195.535156 L 85.253906 198.304688 Z M 137.667969 216.230469 C 146.449219 218.71875 152.878906 226.636719 152.878906 236.042969 L 152.878906 258.324219 C 147.410156 261.796875 141.617188 265.046875 135.613281 267.804688 L 131.777344 269.566406 L 127.945312 267.804688 C 121.972656 265.058594 116.207031 261.832031 110.761719 258.378906 L 110.761719 236.042969 C 110.761719 226.636719 117.191406 218.71875 125.972656 216.230469 L 122.097656 195.535156 L 112.496094 195.535156 L 112.496094 191.269531 L 151.195312 191.269531 L 151.195312 195.535156 L 141.542969 195.535156 Z M 189.742188 216.328125 C 192.488281 217.472656 194.335938 219.632812 195.546875 222.484375 C 193.261719 224.925781 191.167969 227.054688 189.539062 228.675781 C 185.292969 232.894531 179.183594 238.621094 171.78125 244.636719 L 171.78125 236.042969 C 171.914062 225.859375 173.734375 217.527344 181.441406 215.765625 L 178.386719 198.304688 L 172.289062 195.535156 L 172.289062 191.269531 L 199.195312 203.496094 L 199.195312 207.761719 L 191.828125 204.410156 L 189.742188 216.328125 "
     id="path4" />
  <path
     fill-rule="nonzero"
     fill="rgb(28.112793%, 16.386414%, 51.6922%)"
     fill-opacity="1"
     d="M 150.941406 73.042969 L 151.632812 61.566406 C 151.632812 61.566406 135.3125 62.394531 135.5625 28.832031 C 135.5625 28.832031 134.789062 28.285156 133.296875 28.011719 C 135.214844 27.402344 136.609375 25.65625 136.609375 23.570312 C 136.609375 20.980469 134.464844 18.878906 131.820312 18.878906 C 129.175781 18.878906 127.03125 20.980469 127.03125 23.570312 C 127.03125 25.632812 128.394531 27.359375 130.277344 27.992188 C 128.695312 28.253906 127.875 28.832031 127.875 28.832031 C 128.71875 62.394531 111.808594 61.566406 111.808594 61.566406 L 112.496094 73.042969 C 125.042969 73.242188 125.648438 81.554688 125.648438 81.554688 C 101.871094 109.929688 98.304688 141.335938 97.992188 155.109375 L 165.449219 155.109375 C 165.132812 141.335938 161.566406 109.929688 137.789062 81.554688 C 137.789062 81.554688 138.394531 73.242188 150.941406 73.042969 "
     id="path5" />
  <path
     fill-rule="nonzero"
     fill="rgb(28.112793%, 16.386414%, 51.6922%)"
     fill-opacity="1"
     d="M 760.421875 234.972656 C 753.925781 234.972656 748.949219 240.214844 748.949219 246.429688 C 748.949219 252.910156 753.835938 257.886719 760.421875 257.886719 C 767.003906 257.886719 771.984375 252.464844 771.984375 246.429688 C 771.984375 240.214844 767.003906 234.972656 760.421875 234.972656 Z M 760.421875 237.003906 C 765.578125 237.003906 769.414062 241.183594 769.414062 246.429688 C 769.414062 251.761719 765.578125 255.765625 760.421875 255.765625 C 755.351562 255.765625 751.515625 251.761719 751.515625 246.429688 C 751.515625 241.183594 755.175781 237.003906 760.421875 237.003906 Z M 767.003906 251.496094 C 766.648438 251.320312 766.289062 251.054688 765.84375 250.609375 C 764.511719 249.09375 763.804688 248.113281 762.914062 246.429688 C 764.335938 245.902344 765.308594 244.921875 765.308594 243.40625 C 765.308594 240.832031 763.003906 240.304688 761.046875 240.304688 L 754.996094 240.304688 L 754.996094 241.625 C 756.421875 241.714844 756.601562 241.714844 756.601562 243.316406 L 756.601562 249.363281 C 756.601562 250.964844 756.421875 250.964844 754.90625 251.054688 L 754.90625 252.464844 L 760.867188 252.464844 L 760.867188 251.054688 C 759.347656 250.964844 759.171875 250.964844 759.171875 249.363281 L 759.171875 247.222656 L 759.527344 247.222656 C 759.972656 247.222656 760.421875 247.3125 760.777344 247.847656 C 761.132812 248.472656 761.578125 249.628906 762.382812 250.699219 C 763.449219 252.113281 764.6875 252.554688 766.648438 252.554688 Z M 759.171875 245.902344 L 759.171875 242.695312 C 759.171875 241.804688 759.527344 241.625 760.328125 241.625 C 761.046875 241.625 762.472656 241.980469 762.472656 243.675781 C 762.472656 244.566406 762.203125 245.1875 761.492188 245.546875 C 761.132812 245.8125 760.421875 245.902344 759.972656 245.902344 L 759.171875 245.902344 "
     id="path6" />
  <path
     fill-rule="nonzero"
     fill="rgb(28.112793%, 16.386414%, 51.6922%)"
     fill-opacity="1"
     d="M 283.921875 118.46875 L 283.921875 218.78125 C 283.921875 230.554688 280.59375 238.230469 272.832031 242.835938 C 265.898438 246.675781 260.078125 246.929688 260.078125 252.816406 C 260.078125 255.632812 262.296875 257.421875 266.730469 257.421875 C 272 257.421875 286.972656 255.117188 310.535156 255.117188 C 331.609375 255.117188 349.074219 257.421875 362.382812 257.421875 C 379.574219 257.421875 391.21875 253.070312 398.980469 242.835938 C 405.910156 233.621094 409.792969 220.316406 409.792969 214.941406 C 409.792969 211.871094 408.128906 209.824219 405.910156 209.824219 C 400.367188 209.824219 400.367188 218.78125 388.445312 227.992188 C 377.078125 236.949219 357.671875 242.835938 339.09375 242.835938 C 318.300781 242.835938 316.914062 237.460938 316.914062 219.292969 L 316.914062 179.371094 C 316.914062 168.882812 318.300781 165.042969 328.558594 165.042969 L 339.371094 165.042969 C 355.453125 165.042969 362.9375 167.601562 367.375 178.347656 C 370.699219 186.792969 367.929688 192.933594 374.859375 192.933594 C 377.910156 192.933594 379.574219 191.398438 379.574219 188.074219 C 379.574219 185.003906 377.355469 174 377.355469 154.804688 C 377.355469 143.035156 378.464844 136.894531 378.464844 135.359375 C 378.464844 131.773438 377.355469 129.984375 374.027344 129.984375 C 367.375 129.984375 367.375 137.917969 362.105469 144.570312 C 356.5625 151.222656 349.628906 153.269531 337.707031 153.269531 L 328.835938 153.269531 C 320.242188 153.269531 316.914062 150.199219 316.914062 142.523438 L 316.914062 102.601562 C 316.914062 91.34375 323.015625 87.761719 339.371094 87.761719 C 366.820312 87.761719 379.851562 91.34375 385.671875 102.347656 C 389.554688 110.023438 385.394531 117.1875 392.882812 117.1875 C 396.761719 117.1875 397.316406 115.910156 397.316406 112.070312 C 397.316406 110.28125 397.039062 102.859375 397.039062 90.320312 C 397.039062 87.25 397.039062 85.457031 397.039062 84.945312 C 397.039062 76.5 395.375 75.734375 385.949219 75.734375 C 373.75 75.734375 347.6875 77.78125 307.488281 77.78125 C 277.820312 77.78125 262.019531 75.734375 259.523438 75.734375 C 254.808594 75.734375 252.316406 77.78125 252.316406 81.105469 C 252.316406 89.550781 266.453125 83.664062 276.433594 92.109375 C 283.644531 98.253906 283.921875 105.929688 283.921875 118.46875 "
     id="path7" />
  <path
     fill-rule="nonzero"
     fill="rgb(28.112793%, 16.386414%, 51.6922%)"
     fill-opacity="1"
     d="M 779.605469 79.828125 C 779.605469 76.757812 777.664062 75.734375 773.507812 75.734375 C 769.070312 75.734375 760.476562 77.78125 747.445312 77.78125 C 734.136719 77.78125 724.433594 75.988281 718.609375 75.988281 C 714.175781 75.988281 711.679688 77.011719 711.679688 80.339844 C 711.679688 87.246094 721.660156 84.945312 733.027344 89.039062 C 743.839844 93.132812 745.503906 103.625 745.503906 121.792969 L 745.503906 166.066406 C 745.503906 193.445312 743.285156 212.640625 730.53125 226.457031 C 720.273438 237.71875 704.472656 243.859375 686.171875 243.859375 C 666.210938 243.859375 650.40625 235.15625 641.257812 220.316406 C 633.773438 208.03125 633.496094 192.933594 633.496094 174.511719 C 633.496094 173.230469 633.496094 171.949219 633.496094 170.671875 L 633.496094 129.984375 C 633.496094 104.648438 633.773438 92.621094 642.367188 88.015625 C 649.019531 84.433594 656.230469 85.457031 656.230469 80.082031 C 656.230469 76.757812 653.734375 75.476562 648.742188 75.476562 C 642.921875 75.476562 630.445312 78.035156 610.484375 78.035156 C 595.234375 78.035156 584.421875 76.242188 578.597656 76.242188 C 577.113281 76.242188 575.902344 76.351562 574.894531 76.566406 C 574.886719 76.566406 574.875 76.570312 574.867188 76.570312 C 574.363281 76.679688 573.914062 76.824219 573.523438 77 C 573.503906 77.011719 573.480469 77.019531 573.460938 77.027344 C 573.285156 77.109375 573.113281 77.195312 572.960938 77.296875 C 570.960938 78.332031 569.421875 80.226562 567.84375 83.085938 C 567.582031 83.535156 567.339844 84.015625 567.09375 84.496094 C 567.074219 84.535156 567.054688 84.566406 567.035156 84.605469 C 567.027344 84.621094 567.023438 84.628906 567.015625 84.644531 C 566.019531 86.597656 564.894531 88.527344 561.886719 88.527344 C 556.894531 88.527344 536.101562 72.917969 500.335938 72.917969 C 471.777344 72.917969 447.378906 83.664062 429.359375 103.371094 C 412.722656 121.792969 403.296875 146.105469 403.296875 171.695312 C 403.296875 223.898438 439.894531 260.238281 494.511719 260.238281 C 521.960938 260.238281 545.527344 251.792969 564.65625 234.902344 C 577.132812 223.898438 582.957031 214.941406 582.957031 211.105469 C 582.957031 208.542969 581.570312 207.265625 579.351562 207.265625 C 574.359375 207.265625 571.3125 214.175781 562.71875 221.339844 C 546.636719 234.390625 527.507812 241.554688 509.484375 241.554688 C 486.195312 241.554688 467.066406 230.550781 452.925781 209.3125 C 442.667969 194.214844 437.121094 175.277344 437.121094 156.339844 C 437.121094 110.535156 463.738281 83.152344 495.898438 83.152344 C 520.296875 83.152344 543.863281 95.4375 559.667969 115.910156 C 571.589844 131.519531 570.757812 138.683594 576.855469 138.683594 C 579.351562 138.683594 580.738281 137.402344 580.738281 134.078125 C 580.738281 129.726562 577.6875 115.398438 576.578125 92.109375 C 576.484375 89.472656 576.515625 87.296875 576.378906 85.566406 C 579.304688 86.1875 583.382812 86.554688 588.304688 88.273438 C 597.730469 91.34375 600.503906 95.4375 600.503906 111.046875 L 600.503906 173.488281 C 600.503906 231.066406 619.355469 259.46875 675.359375 259.46875 C 731.363281 259.46875 759.644531 228.761719 759.644531 167.34375 L 759.644531 134.589844 C 759.644531 106.953125 759.644531 92.621094 765.742188 88.527344 C 772.398438 84.175781 779.605469 85.714844 779.605469 79.828125 "
     id="path8" />
</svg>
